<svg xmlns="http://www.w3.org/2000/svg" width="24" height="24" viewBox="0 0 24 24" fill="none">
  <mask id="mask0_51_6" style="mask-type:alpha" maskUnits="userSpaceOnUse" x="0" y="0" width="24" height="24">
    <rect width="24" height="24" fill="#D9D9D9"/>
  </mask>
  <g mask="url(#mask0_51_6)">
    <path d="M7.99988 11.0001C8.28321 11.0001 8.52071 10.9042 8.71238 10.7126C8.90404 10.5209 8.99988 10.2834 8.99988 10.0001C8.99988 9.71673 8.90404 9.47923 8.71238 9.28756C8.52071 9.09589 8.28321 9.00006 7.99988 9.00006C7.71654 9.00006 7.47904 9.09589 7.28738 9.28756C7.09571 9.47923 6.99988 9.71673 6.99988 10.0001C6.99988 10.2834 7.09571 10.5209 7.28738 10.7126C7.47904 10.9042 7.71654 11.0001 7.99988 11.0001ZM11.9999 11.0001C12.2832 11.0001 12.5207 10.9042 12.7124 10.7126C12.904 10.5209 12.9999 10.2834 12.9999 10.0001C12.9999 9.71673 12.904 9.47923 12.7124 9.28756C12.5207 9.09589 12.2832 9.00006 11.9999 9.00006C11.7165 9.00006 11.479 9.09589 11.2874 9.28756C11.0957 9.47923 10.9999 9.71673 10.9999 10.0001C10.9999 10.2834 11.0957 10.5209 11.2874 10.7126C11.479 10.9042 11.7165 11.0001 11.9999 11.0001ZM15.9999 11.0001C16.2832 11.0001 16.5207 10.9042 16.7124 10.7126C16.904 10.5209 16.9999 10.2834 16.9999 10.0001C16.9999 9.71673 16.904 9.47923 16.7124 9.28756C16.5207 9.09589 16.2832 9.00006 15.9999 9.00006C15.7165 9.00006 15.479 9.09589 15.2874 9.28756C15.0957 9.47923 14.9999 9.71673 14.9999 10.0001C14.9999 10.2834 15.0957 10.5209 15.2874 10.7126C15.479 10.9042 15.7165 11.0001 15.9999 11.0001ZM1.99988 22.0001V4.00006C1.99988 3.45006 2.19571 2.97923 2.58738 2.58756C2.97904 2.19589 3.44988 2.00006 3.99988 2.00006H19.9999C20.5499 2.00006 21.0207 2.19589 21.4124 2.58756C21.804 2.97923 21.9999 3.45006 21.9999 4.00006V16.0001C21.9999 16.5501 21.804 17.0209 21.4124 17.4126C21.0207 17.8042 20.5499 18.0001 19.9999 18.0001H5.99988L1.99988 22.0001ZM5.14988 16.0001H19.9999V4.00006H3.99988V17.1251L5.14988 16.0001Z" fill="white"/>
  </g>
</svg>
